<?xml version="1.0" encoding="utf-8"?>
<!-- Generator: Adobe Illustrator 23.0.3, SVG Export Plug-In . SVG Version: 6.00 Build 0)  -->
<svg version="1.1" xmlns="http://www.w3.org/2000/svg" xmlns:xlink="http://www.w3.org/1999/xlink" x="0px" y="0px"
	 viewBox="0 0 32 32" enable-background="new 0 0 32 32" xml:space="preserve">
<g id="Layer_1">
	<g>
		<path fill="#FFFFFF" d="M24.46,8.08H7.54C3.39,8.08,0,11.52,0,15.74v8.67c0,4.22,3.39,7.66,7.54,7.66h16.92
			c4.15,0,7.54-3.45,7.54-7.66v-8.67C32,11.52,28.61,8.08,24.46,8.08z M16.25,30.11c-2.22,0-4.01-1.83-4.01-4.08h8.03
			C20.27,28.28,18.47,30.11,16.25,30.11z M23.6,23.35H8.84c-3.39,0-6.15-2.8-6.15-6.25c0-3.45,2.75-6.25,6.15-6.25H23.6
			c3.39,0,6.15,2.8,6.15,6.25C29.74,20.55,26.99,23.35,23.6,23.35z"/>
		<path fill="#FFFFFF" d="M21.02,4.79c0-0.39-0.32-0.72-0.72-0.72h-8.67c-0.39,0-0.72,0.32-0.72,0.72v2.02h10.1V4.79z"/>
		<path fill="#FFFFFF" d="M15.97-0.08c-1.64,0-2.98,1.35-2.98,3.02h5.95C18.94,1.28,17.61-0.08,15.97-0.08z"/>
		<path fill="#FFFFFF" d="M22.26,14.95c-2.41,0-4.37,1.99-4.37,4.44c0,0.59,0.47,1.07,1.05,1.07c0.58,0,1.05-0.48,1.05-1.07
			c0-1.27,1.02-2.3,2.27-2.3c1.25,0,2.26,1.03,2.26,2.3c0,0.59,0.47,1.07,1.05,1.07c0.58,0,1.05-0.48,1.05-1.07
			C26.62,16.94,24.66,14.95,22.26,14.95z"/>
		<path fill="#FFFFFF" d="M9.74,14.86c-2.41,0-4.37,1.99-4.37,4.44c0,0.59,0.47,1.07,1.05,1.07s1.05-0.48,1.05-1.07
			c0-1.27,1.02-2.3,2.27-2.3c1.25,0,2.26,1.03,2.26,2.3c0,0.59,0.47,1.07,1.05,1.07c0.58,0,1.05-0.48,1.05-1.07
			C14.11,16.85,12.15,14.86,9.74,14.86z"/>
	</g>
</g>
<g id="Layer_2" display="none">
	<g display="inline">
		
			<radialGradient id="SVGID_1_" cx="579.153" cy="-674.1576" r="13.004" gradientTransform="matrix(8.0378 0 0 8 -4623.8184 5389.873)" gradientUnits="userSpaceOnUse">
			<stop  offset="0" style="stop-color:#574491"/>
			<stop  offset="0.0326" style="stop-color:#504991"/>
			<stop  offset="0.232" style="stop-color:#266292"/>
			<stop  offset="0.389" style="stop-color:#0C7193"/>
			<stop  offset="0.4832" style="stop-color:#037793"/>
			<stop  offset="0.5896" style="stop-color:#077B8D"/>
			<stop  offset="0.7308" style="stop-color:#13867C"/>
			<stop  offset="0.8909" style="stop-color:#279861"/>
			<stop  offset="1" style="stop-color:#37A74A"/>
		</radialGradient>
		<path fill="url(#SVGID_1_)" d="M24.46,8.11H7.54C3.39,8.11,0,11.55,0,15.74v8.63C0,28.57,3.39,32,7.54,32h16.92
			c4.15,0,7.54-3.43,7.54-7.63v-8.63C32,11.55,28.61,8.11,24.46,8.11z M16.25,30.04c-2.22,0-4.01-1.82-4.01-4.06h8.03
			C20.27,28.23,18.47,30.04,16.25,30.04z M23.6,23.32H8.84c-3.39,0-6.15-2.78-6.15-6.22c0-3.43,2.75-6.22,6.15-6.22H23.6
			c3.39,0,6.15,2.78,6.15,6.22C29.74,20.53,26.99,23.32,23.6,23.32z"/>
		
			<radialGradient id="SVGID_2_" cx="579.153" cy="-674.1576" r="13.004" gradientTransform="matrix(8.0378 0 0 8 -4623.8184 5389.873)" gradientUnits="userSpaceOnUse">
			<stop  offset="0" style="stop-color:#574491"/>
			<stop  offset="0.0326" style="stop-color:#504991"/>
			<stop  offset="0.232" style="stop-color:#266292"/>
			<stop  offset="0.389" style="stop-color:#0C7193"/>
			<stop  offset="0.4832" style="stop-color:#037793"/>
			<stop  offset="0.5896" style="stop-color:#077B8D"/>
			<stop  offset="0.7308" style="stop-color:#13867C"/>
			<stop  offset="0.8909" style="stop-color:#279861"/>
			<stop  offset="1" style="stop-color:#37A74A"/>
		</radialGradient>
		<path fill="url(#SVGID_2_)" d="M21.02,4.84c0-0.39-0.32-0.71-0.72-0.71h-8.67c-0.39,0-0.72,0.32-0.72,0.71v2.01h10.1V4.84z"/>
		
			<radialGradient id="SVGID_3_" cx="579.153" cy="-674.1576" r="13.004" gradientTransform="matrix(8.0378 0 0 8 -4623.8184 5389.873)" gradientUnits="userSpaceOnUse">
			<stop  offset="0" style="stop-color:#574491"/>
			<stop  offset="0.0326" style="stop-color:#504991"/>
			<stop  offset="0.232" style="stop-color:#266292"/>
			<stop  offset="0.389" style="stop-color:#0C7193"/>
			<stop  offset="0.4832" style="stop-color:#037793"/>
			<stop  offset="0.5896" style="stop-color:#077B8D"/>
			<stop  offset="0.7308" style="stop-color:#13867C"/>
			<stop  offset="0.8909" style="stop-color:#279861"/>
			<stop  offset="1" style="stop-color:#37A74A"/>
		</radialGradient>
		<path fill="url(#SVGID_3_)" d="M15.97,0c-1.64,0-2.98,1.35-2.98,3.01h5.95C18.94,1.35,17.61,0,15.97,0z"/>
		
			<radialGradient id="SVGID_4_" cx="579.153" cy="-674.1576" r="13.004" gradientTransform="matrix(8.0378 0 0 8 -4623.8184 5389.873)" gradientUnits="userSpaceOnUse">
			<stop  offset="0" style="stop-color:#574491"/>
			<stop  offset="0.0326" style="stop-color:#504991"/>
			<stop  offset="0.232" style="stop-color:#266292"/>
			<stop  offset="0.389" style="stop-color:#0C7193"/>
			<stop  offset="0.4832" style="stop-color:#037793"/>
			<stop  offset="0.5896" style="stop-color:#077B8D"/>
			<stop  offset="0.7308" style="stop-color:#13867C"/>
			<stop  offset="0.8909" style="stop-color:#279861"/>
			<stop  offset="1" style="stop-color:#37A74A"/>
		</radialGradient>
		<path fill="url(#SVGID_4_)" d="M22.26,14.96c-2.41,0-4.37,1.98-4.37,4.42c0,0.59,0.47,1.06,1.05,1.06c0.58,0,1.05-0.48,1.05-1.06
			c0-1.26,1.02-2.29,2.27-2.29c1.25,0,2.26,1.03,2.26,2.29c0,0.59,0.47,1.06,1.05,1.06c0.58,0,1.05-0.48,1.05-1.06
			C26.62,16.94,24.66,14.96,22.26,14.96z"/>
		
			<radialGradient id="SVGID_5_" cx="579.153" cy="-674.1576" r="13.004" gradientTransform="matrix(8.0378 0 0 8 -4623.8184 5389.873)" gradientUnits="userSpaceOnUse">
			<stop  offset="0" style="stop-color:#574491"/>
			<stop  offset="0.0326" style="stop-color:#504991"/>
			<stop  offset="0.232" style="stop-color:#266292"/>
			<stop  offset="0.389" style="stop-color:#0C7193"/>
			<stop  offset="0.4832" style="stop-color:#037793"/>
			<stop  offset="0.5896" style="stop-color:#077B8D"/>
			<stop  offset="0.7308" style="stop-color:#13867C"/>
			<stop  offset="0.8909" style="stop-color:#279861"/>
			<stop  offset="1" style="stop-color:#37A74A"/>
		</radialGradient>
		<path fill="url(#SVGID_5_)" d="M9.74,14.87c-2.41,0-4.37,1.98-4.37,4.42c0,0.59,0.47,1.06,1.05,1.06s1.05-0.48,1.05-1.06
			c0-1.26,1.02-2.29,2.27-2.29c1.25,0,2.26,1.03,2.26,2.29c0,0.59,0.47,1.06,1.05,1.06c0.58,0,1.05-0.48,1.05-1.06
			C14.11,16.85,12.15,14.87,9.74,14.87z"/>
	</g>
</g>
</svg>
