<?xml version="1.0" encoding="utf-8"?>
<!-- Generator: Adobe Illustrator 23.0.3, SVG Export Plug-In . SVG Version: 6.00 Build 0)  -->
<svg version="1.1" xmlns="http://www.w3.org/2000/svg" xmlns:xlink="http://www.w3.org/1999/xlink" x="0px" y="0px"
	 viewBox="0 0 32 32" enable-background="new 0 0 32 32" xml:space="preserve">
<g id="Layer_1">
	<path fill="#FFFFFF" d="M26,12c3.31,0,6-2.69,6-6c0-3.31-2.69-6-6-6c-3.31,0-6,2.69-6,6c0,0.73,0.15,1.43,0.39,2.08L9.89,15.4
		c-1.05-0.9-2.4-1.46-3.89-1.46c-3.31,0-6,2.69-6,6c0,3.31,2.69,6,6,6c2.07,0,3.89-1.05,4.97-2.64l6.09,2.17
		C17.04,25.65,17,25.82,17,26c0,3.31,2.69,6,6,6c3.31,0,6-2.69,6-6s-2.69-6-6-6c-2.07,0-3.89,1.05-4.97,2.64l-6.09-2.17
		c0.02-0.18,0.05-0.35,0.05-0.53c0-0.73-0.15-1.43-0.39-2.08l10.51-7.32C23.16,11.44,24.51,12,26,12z"/>
</g>
<g id="Layer_2" display="none">
	<radialGradient id="SVGID_1_" cx="0.4772" cy="29.0368" r="51.1616" gradientUnits="userSpaceOnUse">
		<stop  offset="0" style="stop-color:#37A74A"/>
		<stop  offset="0.1091" style="stop-color:#279861"/>
		<stop  offset="0.2692" style="stop-color:#13867C"/>
		<stop  offset="0.4104" style="stop-color:#077B8D"/>
		<stop  offset="0.5168" style="stop-color:#037793"/>
		<stop  offset="0.611" style="stop-color:#0C7193"/>
		<stop  offset="0.768" style="stop-color:#266292"/>
		<stop  offset="0.9674" style="stop-color:#504991"/>
		<stop  offset="1" style="stop-color:#574491"/>
	</radialGradient>
	<path display="inline" fill="url(#SVGID_1_)" d="M26,12c3.31,0,6-2.69,6-6c0-3.31-2.69-6-6-6c-3.31,0-6,2.69-6,6
		c0,0.73,0.15,1.43,0.39,2.08L9.89,15.4c-1.05-0.9-2.4-1.46-3.89-1.46c-3.31,0-6,2.69-6,6c0,3.31,2.69,6,6,6
		c2.07,0,3.89-1.05,4.97-2.64l6.09,2.17C17.04,25.65,17,25.82,17,26c0,3.31,2.69,6,6,6c3.31,0,6-2.69,6-6s-2.69-6-6-6
		c-2.07,0-3.89,1.05-4.97,2.64l-6.09-2.17c0.02-0.18,0.05-0.35,0.05-0.53c0-0.73-0.15-1.43-0.39-2.08l10.51-7.32
		C23.16,11.44,24.51,12,26,12z"/>
</g>
</svg>
