<?xml version="1.0" standalone="no"?>
<!DOCTYPE svg PUBLIC "-//W3C//DTD SVG 1.1//EN" "http://www.w3.org/Graphics/SVG/1.1/DTD/svg11.dtd">
<svg xmlns="http://www.w3.org/2000/svg">
<metadata>Generated by Fontastic.me</metadata>
<defs>
<font id="openflow-font" horiz-adv-x="512">
<font-face font-family="openflow-font" units-per-em="512" ascent="480" descent="-32"/>
<missing-glyph horiz-adv-x="512" />

<glyph glyph-name="add-lg" unicode="&#4096;" d="M482 280l-202 0 0 202c0 14-11 24-24 24-13 0-24-10-24-24l0-202-202 0c-14 0-24-11-24-24 0-13 10-24 24-24l202 0 0-202c0-14 11-24 24-24 13 0 24 10 24 24l0 202 202 0c14 0 24 11 24 24 0 13-10 24-24 24z"/>
<glyph glyph-name="add-sm" unicode="&#4097;" d="M392 280l-112 0 0 112c0 13-11 24-24 24-13 0-24-11-24-24l0-112-112 0c-13 0-24-11-24-24 0-13 11-24 24-24l112 0 0-112c0-13 11-24 24-24 13 0 24 11 24 24l0 112 112 0c13 0 24 11 24 24 0 13-11 24-24 24z"/>
<glyph glyph-name="alert" unicode="&#4098;" d="M257 302c-9 1-17-6-17-15 0-9 6-16 15-17 3 0 27-2 27-28 0-9 7-16 16-16 9 0 16 7 16 16 0 45-37 59-57 60z m143-190l-24 0 0 136c0 66-54 120-120 120-66 0-120-54-120-120l0-136-23 0c-31 0-56-25-56-56l0-31c0-13 10-24 24-24l351 0c13 0 24 11 24 24l0 31c0 31-25 56-56 56z m-216 136c0 40 32 72 72 72 40 0 72-32 72-72l0-136-144 0z m224-199l-303 0 0 7c0 4 3 8 8 8l287 0c4 0 8-4 8-8z m-152 359c9 0 16 7 16 16l0 72c0 9-7 16-16 16-8 0-16-7-16-16l0-72c0-9 7-16 16-16z m-168-166c9 0 16 7 16 16 0 9-7 16-16 16l-72 0c-9 0-16-7-16-16 0-8 7-16 16-16l72 0c0 0 0 0 0 0z m408 32l-72 0c-9 0-16-7-16-16 0-8 7-16 16-16l72 0c9 0 16 7 16 16 0 9-7 16-16 16z m-369 90c3-3 7-5 11-5 4 0 9 2 12 5 6 6 6 16 0 23l-51 51c-6 6-16 6-23 0-6-6-6-17 0-23z m247-5c4 0 8 2 11 5l51 51c6 6 6 17-1 23-6 6-16 6-22-1l-51-50c-6-7-6-17 0-23 3-3 8-5 12-5z"/>
<glyph glyph-name="check-lg" unicode="&#4099;" d="M228 56c-8 0-15 4-19 10l-130 182c-8 10-5 25 6 33 10 8 25 5 33-6l107-149 167 317c6 12 21 17 33 10 11-6 16-20 10-32l-186-352c-3-8-11-12-19-13-1 0-1 0-2 0z"/>
<glyph glyph-name="check-sm" unicode="&#4100;" d="M238 120c-7 0-15 4-19 10l-83 116c-8 10-5 25 6 33 10 8 26 5 33-6l60-83 100 189c6 12 21 17 33 10 11-6 16-20 10-32l-118-224c-4-8-12-12-20-13-1 0-1 0-2 0z"/>
<glyph glyph-name="close-lg" unicode="&#4101;" d="M290 256l143 143c9 9 9 25 0 34-9 9-25 9-34 0l-143-143-143 143c-9 9-25 9-34 0-9-9-9-25 0-34l143-143-143-143c-9-9-9-25 0-34 5-5 11-7 17-7 6 0 12 2 17 7l143 143 143-143c5-5 11-7 17-7 6 0 12 2 17 7 9 9 9 25 0 34z"/>
<glyph glyph-name="close-sm" unicode="&#4102;" d="M290 256l79 79c9 9 9 25 0 34-9 9-25 9-34 0l-79-79-79 79c-9 9-25 9-34 0-9-9-9-25 0-34l79-79-79-79c-9-9-9-25 0-34 5-5 11-7 17-7 6 0 12 2 17 7l79 79 79-79c5-5 11-7 17-7 6 0 12 2 17 7 9 9 9 25 0 34z"/>
<glyph glyph-name="edit" unicode="&#4103;" d="M503 412l-91 91c-6 6-14 9-22 9-9 0-18-4-25-11l-306-307c-3-2-4-5-5-8l-44-153c-4-12 6-24 18-24 2 0 3 0 5 1l153 44c3 1 6 2 9 5l305 306c14 13 15 35 3 47z m-337-314l-38-11-41 41 11 38 291 291 22-21-280-280c-6-6-6-16 0-22 3-3 7-5 12-5 4 0 8 2 11 5l279 279 24-24z"/>
<glyph glyph-name="estates" unicode="&#4104;" d="M508 365l-148 143c-3 3-7 4-10 4-4 0-7-1-10-4l-97-93-29 28c-4 3-8 5-13 5-4 0-8-2-12-5l-184-177c-3-4-5-8-5-13l0-253 403 0 0 152 109 0 0 203c0 4-2 8-4 10z m-153-317l-307 0 0 192 153 148 154-148z m112 148l-64 0 0 57c0 5-2 9-6 13l-122 118 75 71 117-113 0-146z"/>
<glyph glyph-name="menu-toggle" unicode="&#4105;" d="M330 74c-6 0-12 3-17 7-9 10-9 25 0 34l141 141-141 141c-9 9-9 24 0 34 10 9 25 9 34 0l158-158c9-9 9-25 0-34l-158-158c-4-4-11-7-17-7z m-88 318l-218 0c-13 0-24 11-24 24 0 13 11 24 24 24l218 0c13 0 24-11 24-24 0-13-11-24-24-24z m0-318l-218 0c-13 0-24 11-24 24 0 14 11 24 24 24l218 0c13 0 24-10 24-24 0-13-11-24-24-24z m0 158l-218 0c-13 0-24 11-24 24 0 13 11 24 24 24l218 0c13 0 24-11 24-24 0-13-11-24-24-24z"/>
<glyph glyph-name="sensor" unicode="&#4112;" d="M400 112l-120 0 0 55c39 11 68 46 68 89 0 51-41 92-92 92-51 0-92-41-92-92 0-43 29-78 68-89l0-55-119 0c-31 0-56-25-56-56l0-31c0-13 10-24 24-24l351 0c13 0 24 11 24 24l0 31c0 31-25 56-56 56z m-188 144c0 24 20 44 44 44 24 0 44-20 44-44 0-24-20-44-44-44-24 0-44 20-44 44z m196-207l-303 0 0 7c0 4 3 8 8 8l287 0c4 0 8-4 8-8z m-17 268c8-19 13-40 13-61 0-29-8-57-24-81-5-7-3-17 4-22 3-2 6-2 9-2 6 0 11 2 14 7 19 29 29 63 29 98 0 26-5 51-16 75-4 8-13 11-21 8-9-4-12-14-8-22z m-225 95c-7-5-10-14-6-22 5-8 15-10 22-6 45 26 103 26 148 0 2-1 5-2 8-2 5 0 10 3 14 8 4 8 1 17-6 22-55 31-125 31-180 0z m-46-264c3 0 7 1 9 3 8 5 10 15 5 22-17 25-26 53-26 83 0 20 4 39 12 57 4 9 0 18-8 21-9 4-18 0-21-8-10-22-15-46-15-70 0-36 11-71 31-100 3-5 8-8 13-8z m369 214c-4 8-13 12-21 8-8-4-12-13-8-21 13-29 20-61 20-93 0-44-13-86-36-123-5-7-3-17 4-22 3-1 6-2 9-2 5 0 10 2 13 7 28 42 42 90 42 140 0 37-8 73-23 106z m-345 88c68 39 156 39 224 0 2-1 5-2 8-2 5 0 11 3 14 8 4 8 1 18-6 22-78 45-178 45-255 0-8-4-11-14-6-22 4-8 14-10 21-6z m-78-342c7 5 9 15 4 23-25 37-38 80-38 125 0 30 6 60 18 87 3 8-1 18-9 21-8 4-17 0-21-8-13-32-20-65-20-100 0-51 15-101 44-143 3-5 8-7 13-7 3 0 6 1 9 2z"/>
<glyph glyph-name="task" unicode="&#4113;" d="M480 481l-128 0 0 15c0 9-7 16-16 16l-160 0c-9 0-16-7-16-16l0-15-128 0c-18 0-32-14-32-32l0-417c0-18 14-32 32-32l448 0c18 0 32 14 32 32l0 417c0 18-14 32-32 32z m-288-1l128 0 0-48-128 0z m272-432l-416 0 0 385 112 0 0-17c0-9 7-16 16-16l160 0c9 0 16 7 16 16l0 17 112 0z m-119 304l-100-189-60 84c-7 10-22 13-33 5-11-8-13-23-6-33l83-116c4-6 12-10 19-10 1 0 1 0 2 0 8 1 16 6 20 13l118 224c6 12 1 26-11 32-11 6-26 2-32-10z"/>
<glyph glyph-name="trash" unicode="&#4114;" d="M400 431l-66 0 0 25c0 31-25 56-56 56l-44 0c-31 0-56-25-56-56l0-25-65 0c-31 0-56-25-56-55l0-31c0-13 11-23 24-23l15 0 0-274c0-27 21-48 48-48l224 0c27 0 48 21 48 48l0 274 16 0c13 0 23 10 23 23l0 31c0 30-25 55-55 55z m-174 25c0 4 4 8 8 8l44 0c4 0 8-4 8-8l0-25-60 0z m142-408l-224 0 0 274 224 0z m41 320l-305 0 0 8c0 5 4 9 9 9l287 0c5 0 9-4 9-9z m-217-288c-9 0-16 7-16 16l0 176c0 9 7 16 16 16 9 0 16-7 16-16l0-176c0-9-7-16-16-16z m128 0c-9 0-16 7-16 16l0 176c0 9 7 16 16 16 9 0 16-7 16-16l0-176c0-9-7-16-16-16z m-64 0c-9 0-16 7-16 16l0 176c0 9 7 16 16 16 9 0 16-7 16-16l0-176c0-9-7-16-16-16z"/>
<glyph glyph-name="users" unicode="&#4115;" d="M444 351c17 18 27 41 27 68 0 53-43 97-97 97-53 0-97-44-97-97 0-27 11-50 27-68-12-6-24-15-33-25 0 0 0 1 0 2 0 62-50 112-112 112-62 0-112-50-112-112 0-30 12-57 31-77-46-24-78-73-78-128l0-91c0-18 14-32 32-32l254 0c18 0 32 14 32 32l0 91c0 4-1 7-1 11l167 0c16 0 28 13 28 28l0 78c0 49-28 91-68 111z m-70 120c29 0 53-24 53-52 0-29-24-53-53-53-28 0-52 24-52 53 0 28 24 52 52 52z m-215-79c35 0 64-29 64-64 0-29-20-54-47-61-1 0-1 0-2 0l-30 0c-1 0-1 0-2 0-27 7-47 32-47 61 0 35 29 64 64 64z m111-269l0-75-222 0 0 75c0 53 43 96 96 96l30 0c24 0 46-9 63-24 17-15 29-36 32-61 1-3 1-7 1-11z m197 56l-161 0c-6 14-14 27-25 39l0 23c0 44 36 79 80 79l26 0c44 0 80-35 80-79l0-62z"/>
<glyph glyph-name="view" unicode="&#4116;" d="M508 237c-4 7-100 171-248 171-180 0-255-166-258-173-4-8-3-17 2-24 4-4 80-107 256-107 144 0 241 100 245 105 7 7 9 19 3 28z m-207 111c14 0 26-12 26-26 0-14-12-25-26-25-14 0-25 11-25 25 0 14 11 26 25 26z m-41-196c-120 0-185 53-208 77 13 22 42 66 91 97-5-14-8-29-8-45 0-66 53-120 120-120 4 0 8 0 12 1 16 2 31 6 45 14 20 11 37 28 48 48 8 14 12 29 14 45 1 4 1 8 1 12 0 5 0 9-1 13-1 10-3 19-6 28 42-30 73-71 89-93-29-25-102-77-197-77z"/>
<glyph glyph-name="aiot" unicode="&#4117;" d="M257 512c-7 0-12-4-12-4l-202-127c0 0-8-3-8-13 0-4 0-10 0-10l0-199c0 0 0-10 0-15 0-9 4-13 6-15 3-1 195-122 195-122 0 0 4-3 9-5 7-5 14 0 14 0l0 45-182 115 0 41 182-114 0 55-182 114 0 42 182-115 0 55-179 113 31 20c48-30 95-60 142-90l38-23 0-242 42 26 0 242-180 113 31 19c60-37 119-75 179-112 0-52 0-104 0-156l0-87 42 27 0 242-180 113 31 19 54-34c42-26 84-53 126-79l0-242 35 22c0 0 6 3 6 11 0 5 0 8 0 6l0 211 0 10c0 8-6 11-6 11l-205 129c0 0-3 3-9 3"/>
<glyph glyph-name="user" unicode="&#4118;" d="M335 280c31 24 50 61 50 102 0 72-57 130-129 130-72 0-129-58-129-129 0-41 18-77 47-101-62-29-105-92-105-165l0-101c0-9 7-16 16-16l342 0c9 0 16 7 16 16l0 91c0 76-44 142-108 173z m-79 184c45 0 81-36 81-81 0-45-36-82-81-82-45 0-81 37-81 82 0 45 36 81 81 81z m139-416l-278 0 0 69c0 74 60 134 134 134 79 0 144-64 144-144l0-59z"/>
<glyph glyph-name="calendar" unicode="&#4119;" d="M480 429l-88 0 0 59c0 13-11 24-24 24-13 0-24-11-24-24l0-59-176 0 0 59c0 13-11 24-24 24-13 0-24-11-24-24l0-59-88 0c-18 0-32-14-32-32l0-365c0-18 14-32 32-32l448 0c18 0 32 14 32 32l0 365c0 18-14 32-32 32z m-16-381l-416 0 0 333 72 0 0-23c0-13 11-24 24-24 13 0 24 11 24 24l0 23 176 0 0-23c0-13 11-24 24-24 13 0 24 11 24 24l0 23 72 0z m-384 240l96 0 0-48-96 0z m256 0l96 0 0-48-96 0z m-128 0l96 0 0-48-96 0z m-128-80l96 0 0-48-96 0z m256 0l96 0 0-48-96 0z m-128 0l96 0 0-48-96 0z m-128-80l96 0 0-48-96 0z m256 0l96 0 0-48-96 0z m-128 0l96 0 0-48-96 0z"/>
<glyph glyph-name="report" unicode="&#4120;" d="M408 464l0-416-304 0 0 416 304 0m0 48l-304 0c-27 0-48-21-48-48l0-416c0-27 21-48 48-48l304 0c27 0 48 21 48 48l0 416c0 27-21 48-48 48z m-64-144l-176 0c-9 0-16 7-16 16 0 9 7 16 16 16l176 0c9 0 16-7 16-16 0-9-7-16-16-16z m0-85l-176 0c-9 0-16 7-16 16 0 9 7 16 16 16l176 0c9 0 16-7 16-16 0-9-7-16-16-16z m0-86l-176 0c-9 0-16 7-16 16 0 9 7 16 16 16l176 0c9 0 16-7 16-16 0-9-7-16-16-16z m0-85l-176 0c-9 0-16 7-16 16 0 9 7 16 16 16l176 0c9 0 16-7 16-16 0-9-7-16-16-16z"/>
<glyph glyph-name="angle-down" unicode="&#4121;" d="M403 317c0-6-3-12-7-17l-123-122c-5-5-11-7-17-7-6 0-12 2-17 7l-123 122c-9 10-9 25 0 34 10 10 25 10 34 0l106-106 106 106c9 10 25 10 34 0 5-4 7-10 7-17z"/>
<glyph glyph-name="angle-left" unicode="&#4122;" d="M317 109c-6 0-12 3-17 7l-122 123c-5 5-7 11-7 17 0 6 2 12 7 17l122 123c10 9 25 9 34 0 10-10 10-25 0-34l-106-106 106-106c10-9 10-25 0-34-4-5-10-7-17-7z"/>
<glyph glyph-name="angle-up" unicode="&#4123;" d="M109 195c0 6 3 12 7 17l123 122c5 5 11 7 17 7 6 0 12-2 17-7l123-122c9-10 9-25 0-34-10-10-25-10-34 0l-106 106-106-106c-9-10-25-10-34 0-5 4-7 10-7 17z"/>
<glyph glyph-name="angle-right" unicode="&#4124;" d="M195 403c6 0 12-3 17-7l122-123c5-5 7-11 7-17 0-6-2-12-7-17l-122-123c-10-9-25-9-34 0-10 10-10 25 0 34l106 106-106 106c-10 9-10 25 0 34 4 5 10 7 17 7z"/>
<glyph glyph-name="arrow-up-sm" unicode="&#4106;" d="M396 310l-123 123c-5 4-11 7-17 7-6 0-12-3-17-7l-123-123c-4-5-7-11-7-17 0-6 3-12 7-17 10-9 25-9 34 0l82 82 0-262c0-13 11-24 24-24 13 0 24 11 24 24l0 262 82-82c9-9 25-9 34 0 9 10 9 25 0 34z"/>
<glyph glyph-name="arrow-up-lg" unicode="&#4125;" d="M280 40l0 374 132-131c9-9 24-9 34 0 9 9 9 25 0 34l-173 172c-9 10-24 10-34 0l-172-172c-5-5-7-11-7-17 0-6 2-12 7-17 9-9 25-9 34 0l131 131 0-374c0-13 11-24 24-24 14 0 24 11 24 24z"/>
<glyph glyph-name="arrow-right-sm" unicode="&#4107;" d="M433 273l-123 123c-5 4-11 7-17 7-6 0-12-3-17-7-9-10-9-25 0-34l82-82-262 0c-13 0-24-11-24-24 0-13 11-24 24-24l262 0-82-82c-9-9-9-25 0-34 9-9 25-9 34 0l123 123c4 5 7 11 7 17 0 6-3 12-7 17z"/>
<glyph glyph-name="arrow-right-lg" unicode="&#4126;" d="M40 232l375 0-132-131c-9-10-9-25 0-34 10-10 25-10 34 0l172 172c10 9 10 25 0 34l-172 172c-4 5-11 7-17 7-6 0-12-2-17-7-9-9-9-24 0-34l132-131-375 0c-13 0-24-11-24-24 0-13 11-24 24-24z"/>
<glyph glyph-name="arrow-left-sm" unicode="&#4108;" d="M416 280l-262 0 82 82c9 9 9 25 0 34-10 9-25 9-34 0l-123-123c-4-5-7-11-7-17 0-6 3-12 7-17l123-123c5-4 11-7 17-7 6 0 12 3 17 7 9 10 9 25 0 34l-82 82 262 0c13 0 24 11 24 24 0 13-11 24-24 24z"/>
<glyph glyph-name="arrow-left-lg" unicode="&#4127;" d="M472 280l-374 0 131 131c10 10 10 25 0 34-9 10-24 10-34 0l-172-172c-9-9-9-25 0-34l172-172c5-5 11-7 17-7 6 0 13 2 17 7 10 9 10 24 0 34l-131 131 374 0c14 0 24 11 24 24 0 13-10 24-24 24z"/>
<glyph glyph-name="arrow-down-sm" unicode="&#4109;" d="M396 236c-10 9-25 9-34 0l-82-82 0 262c0 13-11 24-24 24-13 0-24-11-24-24l0-262-82 82c-9 9-25 9-34 0-9-9-9-25 0-34l123-123c5-4 11-7 17-7 6 0 12 3 17 7l123 123c4 5 7 11 7 17 0 6-2 12-7 17z"/>
<glyph glyph-name="arrow-down-lg" unicode="&#4128;" d="M232 472l0-374-131 131c-9 9-25 9-34 0-9-9-9-25 0-34l172-172c10-10 25-10 34 0l173 172c4 5 7 11 7 17 0 6-3 12-7 17-10 9-25 9-34 0l-132-131 0 374c0 14-10 24-24 24-13 0-24-11-24-24z"/>
<glyph glyph-name="filter" unicode="&#4129;" d="M230 0c-3 0-6 1-10 2-8 4-14 12-14 22l0 221-200 227c-6 7-8 17-4 26 4 9 13 14 22 14l464 0c9 0 18-5 22-13 4-9 3-19-3-26l-176-227 0-151c0-7-3-13-8-17l-76-72c-5-4-11-6-17-6z m-153 464l171-194c4-4 6-10 6-16l0-175 29 27 0 148c0 6 1 11 5 15l151 195z"/>
<glyph glyph-name="check-circle" unicode="&#4130;" d="M238 120c-7 0-15 4-19 10l-83 116c-8 10-5 25 6 33 10 8 26 5 33-6l60-83 100 189c6 12 21 17 33 10 11-6 16-20 10-32l-118-224c-4-8-12-12-20-13-1 0-1 0-2 0z m18 344c115 0 208-93 208-208 0-115-93-208-208-208-115 0-208 93-208 208 0 115 93 208 208 208m0 48c-141 0-256-115-256-256 0-141 115-256 256-256 141 0 256 115 256 256 0 141-115 256-256 256z"/>
<glyph glyph-name="close-circle" unicode="&#4131;" d="M290 256l79 79c9 9 9 25 0 34-9 9-25 9-34 0l-79-79-79 79c-9 9-25 9-34 0-9-9-9-25 0-34l79-79-79-79c-9-9-9-25 0-34 5-5 11-7 17-7 6 0 12 2 17 7l79 79 79-79c5-5 11-7 17-7 6 0 12 2 17 7 9 9 9 25 0 34z m-34 208c115 0 208-93 208-208 0-115-93-208-208-208-115 0-208 93-208 208 0 115 93 208 208 208m0 48c-141 0-256-115-256-256 0-141 115-256 256-256 141 0 256 115 256 256 0 141-115 256-256 256z"/>
<glyph glyph-name="add-circle" unicode="&#4132;" d="M392 280l-112 0 0 112c0 13-11 24-24 24-13 0-24-11-24-24l0-112-112 0c-13 0-24-11-24-24 0-13 11-24 24-24l112 0 0-112c0-13 11-24 24-24 13 0 24 11 24 24l0 112 112 0c13 0 24 11 24 24 0 13-11 24-24 24z m-136 184c115 0 208-93 208-208 0-115-93-208-208-208-115 0-208 93-208 208 0 115 93 208 208 208m0 48c-141 0-256-115-256-256 0-141 115-256 256-256 141 0 256 115 256 256 0 141-115 256-256 256z"/>
</font>
</defs>
</svg>
