<?xml version="1.0" encoding="utf-8"?>
<svg version="1.1" id="Layer_1" xmlns="http://www.w3.org/2000/svg" xmlns:xlink="http://www.w3.org/1999/xlink" x="0px" y="0px"
	 viewBox="0 0 32 32" enable-background="new 0 0 32 32" xml:space="preserve">
<path fill="#FFFFFF" d="M16,0C7.16,0,0,7.16,0,16s7.16,16,16,16s16-7.16,16-16S24.84,0,16,0z M8.09,24.4l-1.61-0.8
	c-0.49-0.24-0.7-0.85-0.45-1.34l7.09-14.34c0.24-0.49,0.85-0.7,1.34-0.45l1.61,0.8c0.49,0.24,0.7,0.85,0.45,1.34L9.43,23.94
	C9.19,24.44,8.59,24.64,8.09,24.4z M20.9,8.18l-3.76,15.55c-0.13,0.53-0.67,0.87-1.21,0.74l-1.75-0.42
	c-0.53-0.13-0.87-0.67-0.74-1.21l3.76-15.55c0.13-0.54,0.67-0.87,1.21-0.74l1.75,0.42C20.7,7.11,21.03,7.65,20.9,8.18z M24.9,23.5
	c0,0.55-0.45,1-1,1h-1.8c-0.55,0-1-0.45-1-1v-16c0-0.55,0.45-1,1-1h1.8c0.55,0,1,0.45,1,1V23.5z"/>
</svg>
